<svg xmlns="http://www.w3.org/2000/svg" version="1.1" id="Layer_1" x="0" y="0" xml:space="preserve" width="190cm" height="190cm"><style id="style2">.st0{fill:#ff671d}.st1{fill:#221c35}.st3{fill:#fff}</style><switch id="switch24" transform="translate(-649.36 401.57)"><g id="g22"><path class="st0" d="M6184.46 506.08l-512.77 944.95 773.16-350.07zM1124.1 1628.34l-299.22 606.17 919.5-72.91zm2806.56 3882.27l555.85 335.75-126.19-1067.68z" id="path4"/><path class="st0" d="M6426.83 3687.52L7827.56 2323.8l-2198.43-627.83 171.93 526.2-795.4-1693.13-1071.22 1004.13L1556.18 529.04l841.02 2445.09L652.26 4609.79l1898.9-79.03-23.44 1341.12L4407.48 4462.9l1446.65 1268.48-193.55-1335.43 1321.22 204.54zm-317.85-522.88l-242.24-398.5 67.31-136.9z" id="path6"/><path class="st1" d="M4848.76 3207.94l-3489.39 824.11-62.67-1548.14 3489.46-809.81z" id="path8"/><path class="st1" d="M7153.22 3869.38L3280.14 4805.4l-32.47-1537.78 3804.32-930.83zm-759.94-1569.13l-1377.31 344.93-22.7-857.84 1344.26-321.12zm-3323.29 2350.9L1771.23 4970.8v-857.6l1284.69-309.33z" id="path10"/><path fill="#ffc629" d="M2639.65 4343.37l-104.04-73.6-.38.53-252.88-178.32-73.6 104.05 253.03 178.42-178.09 252.57 104.04 73.6 178.21-252.72.06.04 73.6-104.04-.22-.16zM5886.5 2022.26l-104.04-73.6-.37.53-252.88-178.31-73.61 104.04 253.04 178.42-178.09 252.57 104.04 73.6 178.2-252.72.06.04 73.61-104.04-.22-.16z" id="path12"/><g id="g16"><path class="st3" d="M1964.56 3274.67l4.46 138.46c-.97 41.68-8.11 80.72-20.42 115.48-13.28 30.84-29.47 61-54.75 87.84-25.96 29.76-61.28 49.36-106.98 60.41-45.67 11.05-82.15 8.81-111.01-7.7-26.92-14.21-44.66-36.16-56.19-61.01-16.41-27.82-24.62-61.76-26.57-104.12l-16.58-594.22c-.02-40.08 6.13-77.48 19.43-113.86 13.26-30.84 27.84-61.99 53.12-88.83 25.28-26.84 61.28-49.36 108.28-60.73 46.99-11.37 82.79-6.21 109.71 8.01 26.93 14.21 46.29 37.16 57.82 62 16.08 26.51 24.29 60.45 27.56 102.49l3.16 138.78-131.83 31.88-3.18-138.78c-.75-26.06-8.44-46.32-23.65-57.83-6.79-5.26-18.19-6.66-32.54-3.19-24.81 6-36.05 28.06-42.4 47.55-1.7 10.1-4.08 23.1-4.53 38.4l16.6 594.23c2.07 25.74 9.74 46 23.65 57.83 6.81 5.26 15.59 7.29 27.33 4.45 30.02-7.26 41.9-26.72 47.61-48.82a173.86 173.86 0 004.53-38.41l-4.47-138.46zm456.05 29.24c-.97 41.68-8.1 80.72-20.42 115.49-13.28 30.84-29.46 60.99-54.75 87.84-25.96 29.76-61.28 49.36-106.97 60.41-45.69 11.05-82.14 8.81-111-7.69-26.94-14.22-44.68-36.17-56.21-61.01-16.4-27.82-24.62-61.76-26.55-104.11l-16.6-594.23c-.02-40.08 6.13-77.48 19.43-113.86 13.28-30.84 27.85-61.99 53.12-88.83 25.3-26.84 61.28-49.36 108.28-60.73 47-11.37 82.79-6.21 109.71 8.01 26.93 14.22 46.29 37.16 57.82 62 16.08 26.51 24.29 60.45 27.56 102.49zm-157.56-560.13c-1.08-27.36-8.44-46.32-21.06-58.46-6.79-5.26-16.87-6.97-28.63-4.13-24.81 6-36.05 28.06-41.08 47.24-2.69 11.72-3.77 24.41-3.23 38.09l16.6 594.22c-.54 26.37 7.13 46.63 21.06 58.47 6.79 5.26 15.57 7.29 27.32 4.45 24.81-6 36.68-25.45 41.09-47.24 2-8.78 4.4-21.79 4.53-38.4zm619.6 448.39c-.97 41.68-8.11 80.72-20.44 115.49-13.25 30.84-29.45 60.99-54.73 87.84-25.96 29.76-61.28 49.36-106.98 60.41-45.67 11.05-82.15 8.81-111.01-7.69-26.93-14.22-44.66-36.17-56.19-61.01-16.41-27.82-24.62-61.76-26.57-104.11l-16.6-594.23c-.02-40.07 6.13-77.48 19.45-113.85 13.25-30.84 27.82-61.99 53.12-88.84 25.28-26.85 61.28-49.36 108.28-60.73 47-11.37 82.79-6.2 109.69 8.01 26.94 14.22 46.31 37.16 57.84 62 16.08 26.51 24.29 60.45 27.54 102.49zm-157.56-560.13c-1.11-27.36-8.45-46.32-21.06-58.47-6.79-5.25-16.88-6.97-28.63-4.13-24.81 6-36.05 28.06-41.08 47.24-2.71 11.72-3.77 24.41-3.23 38.09l16.6 594.23c-.54 26.37 7.12 46.63 21.04 58.47 6.8 5.26 15.57 7.29 27.32 4.44 24.81-5.99 36.69-25.45 41.08-47.23 2.03-8.79 4.41-21.8 4.53-38.41zm230.3-264.32l140.98-34.1 24.22 871.46 186.65-45.14 4.17 137.16-327.64 79.23zm385.02-93.12l322.42-77.97 3.7 152.46-181.44 43.88 7.4 264.87 130.54-31.57 4.62 161.91-130.54 31.57 7.64 277.24 181.44-43.88 5.02 152.16-322.4 77.97zm641.72 116.98c-1.04-32.89-3.04-69.72-13.59-96.18-10.22-25.16-25.1-40.92-47.26-35.55-36.24 10.15-46.66 52.75-44.85 111.71 1.37 34.21 14.8 66.89 37.99 99.95 23.2 33.09 49.33 66.83 78.68 102.56 36.48 42.29 68.07 87.17 95.4 131.67 26.03 44.84 44.56 92.86 45.44 147.91 1.11 67.43-5.56 131.22-34.98 186.68-29.42 55.48-74.99 95.52-153.31 114.45-90.06 21.79-142.64-1.43-172.26-49.54-32.21-47.47-38.18-117.87-41.49-194.44l137.81-47.15c.66 42.67 3.91 84.72 15.09 113.79 11.48 30.39 26.97 48.75 57.01 41.49 41.76-10.1 54.52-60.16 54.04-124.98-1.06-32.91-16.41-67.87-39.92-102.26-6.13-8.19-12.58-17.68-18.7-25.87-6.13-8.2-12.57-17.68-18.7-25.88-13.86-17.37-29.36-35.72-45.18-55.4-15.8-19.67-31.6-39.31-48.05-61.61a459.39 459.39 0 01-73.83-139.64c-9.93-23.84-12.31-50.9-13.42-78.27-2.17-54.74 7.75-116.55 37.8-169.41 27.75-50.93 72.7-93.57 138.95-110.98 87.13-22.45 136.12 2.99 165.41 49.81 28.3 48.41 38.53 113.63 39.73 169.99zm160.76-157.68l-3.7-152.46 407.24-98.49 3.7 152.46L4417 2167.6l24.69 856.17-140.98 34.1-24.66-856.17z" id="path14"/></g><g id="g20"><path class="st3" d="M3505.68 3442.62l140.98-34.1c61.35-14.83 122.26-14.36 171.16 22.18 48.9 36.52 83.24 104.2 84.93 219.84 1.72 115.64-26.92 197.18-72 256.44-45.07 59.26-106.24 92.02-167.58 106.86l11.87 403.33-140.98 34.1zm152.8 420.38c43.07-10.41 71.21-25.51 85.4-52.44 15.85-25.93 17.76-63.69 16.58-120.06-1.2-56.35-6.13-93.85-22.57-116.13-15.8-19.65-44.75-25.09-87.83-14.67zm586.93 416.24l-86.09-407.49-37.87 9.16 13.02 425.16-140.97 34.1-28.38-1008.65 140.96-34.09c168.38-40.72 242.02 40.95 248.36 232.85 2.16 100.34-20.09 196.9-72.6 248.28l104.55 466.58zm-126.81-535.82c19.59-4.74 45.37-12.34 65.44-37.93 20.05-25.58 36.65-65.51 34.6-136.85-2.05-71.34-19.71-104.39-41.43-119.87-21.69-15.47-47.79-9.15-67.39-4.42zm706.96 186.89c-.97 41.68-8.11 80.72-20.42 115.47-13.28 30.84-29.47 61.01-54.75 87.85-25.96 29.77-61.28 49.35-106.98 60.4-45.67 11.05-82.15 8.82-111.01-7.69-26.93-14.21-44.66-36.18-56.19-61.02-16.41-27.81-24.62-61.75-26.57-104.11l-16.6-594.24c-.01-40.06 6.14-77.46 19.45-113.84 13.26-30.85 27.84-62 53.12-88.85 25.28-26.83 61.28-49.35 108.28-60.72 47-11.37 82.79-6.2 109.71 8.01 26.92 14.21 46.29 37.16 57.82 62.01 16.08 26.49 24.29 60.43 27.54 102.48zM4668 3370.16c-1.11-27.36-8.44-46.32-21.06-58.47-6.79-5.26-16.88-6.97-28.63-4.13-24.81 6-36.05 28.07-41.08 47.24-2.71 11.71-3.77 24.4-3.23 38.09l16.6 594.23c-.54 26.37 7.12 46.63 21.03 58.47 6.81 5.26 15.59 7.28 27.33 4.44 24.81-6 36.68-25.45 41.1-47.24 2-8.79 4.39-21.79 4.52-38.4zm210.47 619.2c28.37-2.72 48.67-15.92 62.2-39.91 7.24-10.04 11.29-27.61 10.82-52.36l-21.86-798.82 140.98-34.09 22 822.29c2.19 54.73-9.63 108.71-41.57 153.74-31.95 45.02-84.32 79.79-169.13 94.77zm290-948.86l322.4-77.97 3.73 152.47-181.44 43.88 7.4 264.85 130.52-31.57 4.62 161.92-130.52 31.57 7.64 277.24 181.42-43.88 5.02 152.15-322.4 77.97zm785.5 477.38l4.46 138.46c-.97 41.68-8.11 80.72-20.42 115.47-13.28 30.84-29.47 61.01-54.75 87.85-25.96 29.76-61.28 49.35-106.98 60.4-45.67 11.05-82.14 8.82-111-7.68-26.94-14.22-44.67-36.18-56.2-61.02-16.41-27.81-24.62-61.75-26.56-104.1l-16.59-594.24c-.02-40.06 6.13-77.47 19.43-113.84 13.28-30.85 27.85-62 53.12-88.85 25.3-26.83 61.28-49.35 108.28-60.72 47-11.37 82.79-6.2 109.71 8 26.93 14.22 46.29 37.16 57.82 62.01 16.08 26.5 24.29 60.44 27.56 102.48l3.16 138.78-131.83 31.88-3.18-138.77c-.77-26.06-8.43-46.32-23.65-57.83-6.79-5.26-18.18-6.65-32.54-3.18-24.81 6-36.05 28.06-42.4 47.55-1.7 10.08-4.08 23.1-4.53 38.39l16.6 594.24c2.07 25.74 9.74 46 23.65 57.83 6.8 5.26 15.59 7.27 27.33 4.43 30.03-7.26 41.9-26.72 47.61-48.82a173.82 173.82 0 004.53-38.39l-4.46-138.46zm20.89-519.03l-3.7-152.47 407.24-98.49 3.7 152.48-133.13 32.2 24.68 856.17-140.97 34.1-24.66-856.17zm699.34-50.3c-1.06-32.91-3.04-69.74-13.61-96.2-10.22-25.16-25.09-40.9-47.28-35.54-36.22 10.15-46.65 52.74-44.82 111.71 1.37 34.2 14.78 66.88 37.99 99.95 23.2 33.07 49.33 66.83 78.68 102.56 36.48 42.3 68.05 87.17 95.4 131.67 26.03 44.82 44.55 92.84 45.44 147.9 1.11 67.43-5.56 131.22-34.99 186.7-29.4 55.46-75.01 95.5-153.31 114.44-90.07 21.78-142.65-1.42-172.25-49.53-32.21-47.48-38.17-117.88-41.5-194.45l137.82-47.14c.64 42.67 3.91 84.71 15.08 113.79 11.49 30.38 26.99 48.74 57 41.48 41.78-10.1 54.54-60.16 54.07-124.98-1.06-32.92-16.42-67.89-39.94-102.26-6.12-8.21-12.57-17.69-18.69-25.88-6.12-8.19-12.56-17.69-18.69-25.88-13.89-17.37-29.37-35.72-45.18-55.39-15.8-19.66-31.62-39.32-48.05-61.6a459.59 459.59 0 01-73.84-139.65c-9.92-23.86-12.32-50.91-13.4-78.27-2.19-54.74 7.73-116.55 37.77-169.42 27.75-50.93 72.72-93.56 138.98-110.96 87.13-22.46 136.12 2.99 165.4 49.8 28.28 48.43 38.54 113.64 39.72 170.01z" id="path18"/></g></g></switch></svg>